<svg data-v-0dd9719b="" version="1.0" xmlns="http://www.w3.org/2000/svg" xmlns:xlink="http://www.w3.org/1999/xlink" width="100%" height="100%" viewBox="0 0 340.000000 250.000000" preserveAspectRatio="xMidYMid meet" color-interpolation-filters="sRGB" style="margin: auto;"> <rect data-v-0dd9719b="" x="0" y="0" width="100%" height="100%" fill="#fff" fill-opacity="1" class="background"></rect> <rect data-v-0dd9719b="" x="0" y="0" width="100%" height="100%" fill="url(#watermark)" fill-opacity="1" class="watermarklayer"></rect> <g data-v-0dd9719b="" fill="#017a6c" class="icon-text-wrapper icon-svg-group iconsvg" transform="translate(49.605003356933594,95)"><g class="iconsvg-imagesvg" transform="translate(0,0)"><g><rect fill="#017a6c" fill-opacity="0" stroke-width="2" x="0" y="0" width="60" height="60" class="image-rect"></rect> <svg x="0" y="0" width="60" height="60" filtersec="colorsb4806481980" class="image-svg-svg primary" style="overflow: visible;"><svg version="1.1" id="图层_1" xmlns="http://www.w3.org/2000/svg" xmlns:xlink="http://www.w3.org/1999/xlink" x="0px" y="0px" viewBox="0.20000000298023224 0 99.80000305175781 99.80000305175781" enable-background="new 0 0 101 100" xml:space="preserve">
<g>
	<path fill-rule="evenodd" clip-rule="evenodd" fill="#017A6C" d="M51.17,12.17C57.98,26.45,84.04,30.25,100,45.73
		c-0.07,0.14-1.17-32.64-38.95-43.71c-2.81-0.82-6.23-1.46-9.13-1.66c4.76,0.66,13.94,4.89,20.71,9.5
		c6.06,4.12,9.92,8.58,11.3,10.51c-3.08-2.23-9.17-8.1-15.87-11.31c-8.25-3.95-17.26-4.7-20.69,0.21L20.08,46.83L51.17,12.17
		L51.17,12.17z"></path>
	<path fill-rule="evenodd" clip-rule="evenodd" fill="#017A6C" d="M49.03,87.63C42.22,73.35,16.16,69.55,0.2,54.07
		c0.06-0.14,1.17,32.64,38.95,43.71c2.81,0.82,6.23,1.46,9.14,1.66c-4.76-0.66-13.94-4.89-20.71-9.5
		c-6.06-4.12-9.92-8.58-11.3-10.52c3.08,2.24,9.17,8.1,15.87,11.31c8.25,3.95,17.26,4.7,20.69-0.21l27.28-37.57L49.03,87.63
		L49.03,87.63z"></path>
	<path fill-rule="evenodd" clip-rule="evenodd" fill="#017A6C" d="M12.37,48.83C26.65,42.02,30.45,15.96,45.93,0
		c0.13,0.07-32.64,1.17-43.71,38.95c-0.82,2.81-1.46,6.23-1.66,9.13c0.66-4.76,4.89-13.94,9.5-20.71c4.12-6.06,8.58-9.92,10.51-11.3
		c-2.23,3.08-8.1,9.17-11.31,15.87c-3.95,8.25-4.7,17.26,0.21,20.69l37.57,27.28L12.37,48.83L12.37,48.83z"></path>
	<path fill-rule="evenodd" clip-rule="evenodd" fill="#017A6C" d="M87.83,50.97C73.55,57.78,69.75,83.84,54.27,99.8
		c-0.14-0.06,32.64-1.17,43.71-38.95c0.82-2.81,1.46-6.23,1.66-9.14c-0.66,4.76-4.89,13.94-9.5,20.71
		c-4.12,6.06-8.58,9.92-10.51,11.3c2.23-3.08,8.1-9.17,11.31-15.87c3.95-8.25,4.7-17.26-0.21-20.69L53.17,19.88L87.83,50.97
		L87.83,50.97z"></path>
</g>
</svg></svg> <!----></g></g> <g transform="translate(67,9.184999465942383)"><g data-gra="path-name" fill-rule="" class="tp-name iconsvg-namesvg"><g transform="scale(1)"><g><path d="M39.48-18.96L39.48-18.96Q39.48-9.42 34.79-4.45 30.11 0.52 21.08 0.52L21.08 0.52Q12.18 0.52 7.44-4.48 2.69-9.47 2.69-19.01L2.69-19.01Q2.69-28.46 7.41-33.44 12.13-38.42 21.14-38.42L21.14-38.42Q30.16-38.42 34.82-33.48 39.48-28.53 39.48-18.96ZM13.45-18.96L13.45-18.96Q13.45-7.99 21.08-7.99L21.08-7.99Q24.96-7.99 26.84-10.66 28.72-13.32 28.72-18.96L28.72-18.96Q28.72-24.63 26.81-27.33 24.91-30.03 21.14-30.03L21.14-30.03Q13.45-30.03 13.45-18.96ZM63.15-29.98L63.15-29.98Q59.5-29.98 57.46-26.99 55.41-24.01 55.41-18.76L55.41-18.76Q55.41-7.84 63.72-7.84L63.72-7.84Q66.23-7.84 68.58-8.54 70.93-9.24 73.31-10.22L73.31-10.22 73.31-1.58Q68.58 0.52 62.6 0.52L62.6 0.52Q54.04 0.52 49.48-4.45 44.91-9.42 44.91-18.81L44.91-18.81Q44.91-24.68 47.12-29.13 49.33-33.58 53.49-35.97 57.64-38.36 63.25-38.36L63.25-38.36Q69.38-38.36 74.97-35.7L74.97-35.7 71.84-27.65Q69.74-28.64 67.65-29.31 65.55-29.98 63.15-29.98ZM105.42-11.49L105.42-11.49Q105.42-7.97 103.63-5.24 101.85-2.51 98.49-1 95.12 0.52 90.59 0.52L90.59 0.52Q86.82 0.52 84.26-0.01 81.7-0.54 78.93-1.86L78.93-1.86 78.93-10.97Q81.85-9.47 85.01-8.63 88.16-7.79 90.8-7.79L90.8-7.79Q93.08-7.79 94.14-8.58 95.2-9.36 95.2-10.61L95.2-10.61Q95.2-11.38 94.77-11.96 94.35-12.55 93.4-13.14 92.46-13.74 88.37-15.57L88.37-15.57Q84.67-17.25 82.82-18.83 80.97-20.41 80.08-22.45 79.19-24.5 79.19-27.29L79.19-27.29Q79.19-32.52 82.99-35.44 86.79-38.36 93.44-38.36L93.44-38.36Q99.31-38.36 105.42-35.65L105.42-35.65 102.29-27.76Q96.98-30.19 93.13-30.19L93.13-30.19Q91.14-30.19 90.23-29.49 89.33-28.79 89.33-27.76L89.33-27.76Q89.33-26.65 90.48-25.77 91.63-24.89 96.73-22.56L96.73-22.56Q101.62-20.36 103.52-17.84 105.42-15.31 105.42-11.49ZM120.84-29.31L120.84 0 110.72 0 110.72-29.31 120.84-29.31ZM110.46-36.61L110.46-36.61Q110.46-38.88 111.73-39.99 113-41.11 115.82-41.11L115.82-41.11Q118.64-41.11 119.93-39.97 121.22-38.83 121.22-36.61L121.22-36.61Q121.22-32.16 115.82-32.16L115.82-32.16Q110.46-32.16 110.46-36.61ZM162.87 0L151.7 0 149.84-7.09 137.55-7.09 135.63 0 124.41 0 136.75-37.98 150.38-37.98 162.87 0ZM139.67-15.47L147.71-15.47 146.09-21.68Q145.52-23.75 144.7-27.03 143.89-30.32 143.63-31.74L143.63-31.74Q143.39-30.42 142.71-27.4 142.02-24.37 139.67-15.47L139.67-15.47ZM176.48-40.25L176.48 0 166.37 0 166.37-40.25 176.48-40.25Z" transform="translate(-2.690000057220459, 41.11000061035156)"></path></g> <!----> <!----> <!----> <!----> <!----> <!----> <!----></g></g> <!----></g></g><defs v-gra="od"></defs></svg>